ModelForces
version=1
nRows=23
nColumns=15
inDegrees=no

This file contains the forces exerted on a model during a simulation.

A force is a generalized force, meaning that it can be either a force (N) or a torque (Nm).

Units are S.I. units (second, meters, Newtons, ...)
Angles are in degrees.

endheader
time	Liu	Thelen	contactForce.block.force.X	contactForce.block.force.Y	contactForce.block.force.Z	contactForce.block.torque.X	contactForce.block.torque.Y	contactForce.block.torque.Z	contactForce.ground.force.X	contactForce.ground.force.Y	contactForce.ground.force.Z	contactForce.ground.torque.X	contactForce.ground.torque.Y	contactForce.ground.torque.Z
      0.00000000	      4.00000000	      2.00000000	      0.00000000	      0.00000000	      0.00000000	      0.00000000	      0.00000000	      0.00000000	      0.00000000	      0.00000000	      0.00000000	      0.00000000	      0.00000000	      0.00000000
      0.00021518	      3.99999995	      1.99998536	      0.00000000	      0.22700499	     -0.00012212	      0.00000611	      0.00000000	      0.00000000	     -0.00000000	     -0.22700499	      0.00012212	     -0.00000000	     -0.00000000	     -0.00000000
      0.00043037	      3.99999981	      1.99997165	      0.00000000	      0.90751359	     -0.00097650	      0.00004882	      0.00000000	      0.00000000	     -0.00000000	     -0.90751359	      0.00097650	     -0.00000001	     -0.00000000	     -0.00000000
      0.00086746	      3.99999925	      1.99994730	      0.00000000	      3.67840435	     -0.00798400	      0.00039917	      0.00000000	      0.00000000	     -0.00000000	     -3.67840435	      0.00798400	     -0.00000014	     -0.00000000	     -0.00000000
      0.00131804	      3.99999826	      1.99992722	      0.00000000	      8.45775283	     -0.02795734	      0.00139763	      0.00000000	      0.00000000	     -0.00000000	     -8.45775283	      0.02795734	     -0.00000074	     -0.00000000	     -0.00000000
      0.00166664	      3.99999722	      1.99991534	      0.00000000	     13.46505611	     -0.05646925	      0.00282270	      0.00000000	      0.00000000	     -0.00000000	    -13.46505611	      0.05646925	     -0.00000188	     -0.00000000	     -0.00000000
      0.00201523	      3.99999593	      1.99990660	      0.00000000	     19.58220792	     -0.09980787	      0.00498844	      0.00000000	      0.00000000	     -0.00000000	    -19.58220792	      0.09980787	     -0.00000400	     -0.00000000	     -0.00000000
      0.00236383	      3.99999439	      1.99990108	      0.00000000	     26.77213146	     -0.16121618	      0.00805649	      0.00000000	      0.00000000	     -0.00000000	    -26.77213146	      0.16121618	     -0.00000754	     -0.00000000	     -0.00000000
      0.00271243	      3.99999259	      1.99989858	      0.00000000	     34.99121643	     -0.24412995	      0.01219796	      0.00000000	      0.00000000	     -0.00000000	    -34.99121643	      0.24412995	     -0.00001303	     -0.00000000	     -0.00000000
      0.00306103	      3.99999053	      1.99989911	      0.00000000	     44.18958196	     -0.35227916	      0.01759840	      0.00000000	      0.00000000	     -0.00000000	    -44.18958196	      0.35227916	     -0.00002107	     -0.00000000	     -0.00000000
      0.00340962	      3.99998819	      1.99990260	      0.00000000	     54.31137803	     -0.48980821	      0.02446382	      0.00000000	      0.00000000	     -0.00000000	    -54.31137803	      0.48980821	     -0.00003234	     -0.00000000	     -0.00000000
      0.00383833	      3.99998491	      1.99991109	      0.00000000	     67.93405059	     -0.70621744	      0.03526291	      0.00000000	      0.00000000	     -0.00000000	    -67.93405059	      0.70621744	     -0.00005178	     -0.00000000	     -0.00000000
      0.00415124	      3.99998222	      1.99992009	      0.00000000	     78.62854312	     -0.90255882	      0.04505700	      0.00000000	      0.00000000	     -0.00000000	    -78.62854312	      0.90255882	     -0.00007073	     -0.00000000	     -0.00000000
      0.00446415	      3.99997925	      1.99993161	      0.00000000	     89.89852549	     -1.13649327	      0.05672253	      0.00000000	      0.00000000	     -0.00000000	    -89.89852549	      1.13649327	     -0.00009449	     -0.00000000	     -0.00000000
      0.00488258	      3.99997481	      1.99995078	      0.00000000	    105.77200923	     -1.51760377	      0.07571973	      0.00000000	      0.00000000	     -0.00000000	   -105.77200923	      1.51760377	     -0.00013518	     -0.00000000	     -0.00000000
      0.00525521	      3.99997036	      1.99997163	      0.00000000	    120.57819136	     -1.93425585	      0.09647966	      0.00000000	      0.00000000	     -0.00000000	   -120.57819136	      1.93425585	     -0.00018159	     -0.00000000	     -0.00000000
      0.00562784	      3.99996539	      1.99999590	      0.00000000	    135.90889783	     -2.43724875	      0.12153133	      0.00000000	      0.00000000	     -0.00000000	   -135.90889783	      2.43724875	     -0.00023938	     -0.00000000	     -0.00000000
      0.00595642	      3.99996051	      2.05125937	      0.00000000	    149.77770712	     -2.96339059	      0.14772587	      0.00000000	      0.00000000	     -0.00000000	   -149.77770712	      2.96339059	     -0.00030134	     -0.00000000	     -0.00000000
      0.00628500	      3.99995511	      2.11518537	      0.00000000	    163.89660033	     -3.57663479	      0.17824579	      0.00000000	      0.00000000	     -0.00000000	   -163.89660033	      3.57663479	     -0.00037517	     -0.00000000	     -0.00000000
      0.00661359	      3.99994914	      2.18120317	      0.00000000	    178.18926056	     -4.28943707	      0.21370786	      0.00000000	      0.00000000	     -0.00000000	   -178.18926056	      4.28943707	     -0.00046253	     -0.00000000	     -0.00000000
      0.00705024	      3.99994020	      2.27170474	      0.00000000	    197.31912297	     -5.41497938	      0.26968096	      0.00000000	      0.00000000	     -0.00000000	   -197.31912297	      5.41497938	     -0.00060281	     -0.00000000	     -0.00000000
      0.00738563	      3.99993243	      2.34360347	      0.00000000	    212.01385888	     -6.43822434	      0.32054682	      0.00000000	      0.00000000	     -0.00000000	   -212.01385888	      6.43822434	     -0.00073221	     -0.00000000	     -0.00000000
      0.00772102	      3.99992376	      2.41720773	      0.00000000	    226.61865521	     -7.61790127	      0.37916945	      0.00000000	      0.00000000	     -0.00000000	   -226.61865521	      7.61790127	     -0.00088330	     -0.00000000	     -0.00000000
